<svg width="697" height="697" viewBox="0 0 697 697" fill="none" xmlns="http://www.w3.org/2000/svg">
<circle cx="348.5" cy="348.5" r="347" fill="#D9D9D9" stroke="black" stroke-width="3"/>
<path d="M182.5 269.448C174.605 265.691 167.205 260.544 160.669 254.008C129.924 223.263 160.669 142.669 160.669 142.669C160.669 142.669 241.263 111.924 272.008 142.669C284.746 155.407 292.206 171.422 294.39 188" stroke="#1E1E1E" stroke-width="3"/>
<path d="M275.065 194.5C274.171 180.743 268.467 167.24 257.953 156.725C234.97 133.743 174.725 156.725 174.725 156.725C174.725 156.725 151.743 216.97 174.725 239.953C180.689 245.916 187.613 250.332 195 253.201" stroke="#1E1E1E" stroke-width="3"/>
<path d="M517.364 269.448C525.26 265.691 532.659 260.544 539.195 254.008C569.94 223.263 539.195 142.669 539.195 142.669C539.195 142.669 458.601 111.924 427.856 142.669C415.119 155.407 407.658 171.422 405.475 188" stroke="#1E1E1E" stroke-width="3"/>
<path d="M424.799 194.5C425.693 180.743 431.397 167.24 441.912 156.725C464.894 133.743 525.139 156.725 525.139 156.725C525.139 156.725 548.122 216.97 525.139 239.953C519.176 245.916 512.251 250.332 504.864 253.201" stroke="#1E1E1E" stroke-width="3"/>
<path d="M551 385.088C551 496.865 460.562 547 349 547C237.438 547 147 496.865 147 385.088C147 273.311 237.438 180 349 180C460.562 180 551 273.311 551 385.088Z" stroke="#1E1E1E" stroke-width="3"/>
<path d="M456.984 455.462C456.984 508.761 460.821 547 349 547C237.179 547 241.016 508.761 241.016 455.462C241.016 402.162 237.179 372 349 372C460.821 372 456.984 402.162 456.984 455.462Z" stroke="#1E1E1E" stroke-width="3"/>
<path d="M385 392.92C385 405.899 363.491 423 348.419 423C333.347 423 313 405.899 313 392.92C313 379.941 333.347 376 348.419 376C363.491 376 385 379.941 385 392.92Z" stroke="#1E1E1E" stroke-width="3"/>
<path d="M279 459.616C321 481.682 343.167 455.019 349 438.929C354.833 455.019 377 481.682 419 459.616M349 421V440.308" stroke="#1E1E1E" stroke-width="3"/>
<path d="M295 349C295 363.912 282.912 376 268 376C253.088 376 241 363.912 241 349C241 334.088 253.088 322 268 322C282.912 322 295 334.088 295 349Z" stroke="#1E1E1E" stroke-width="3"/>
<path d="M286.9 339.55C286.9 344.769 282.669 349 277.45 349C272.231 349 268 344.769 268 339.55C268 334.331 272.231 330.1 277.45 330.1C282.669 330.1 286.9 334.331 286.9 339.55Z" stroke="#1E1E1E" stroke-width="3"/>
<path d="M459 349C459 363.912 446.912 376 432 376C417.088 376 405 363.912 405 349C405 334.088 417.088 322 432 322C446.912 322 459 334.088 459 349Z" stroke="#1E1E1E" stroke-width="3"/>
<path d="M450.9 339.55C450.9 344.769 446.669 349 441.45 349C436.231 349 432 344.769 432 339.55C432 334.331 436.231 330.1 441.45 330.1C446.669 330.1 450.9 334.331 450.9 339.55Z" stroke="#1E1E1E" stroke-width="3"/>
</svg>
