<svg width="170" height="65" viewBox="0 0 170 65" fill="none" xmlns="http://www.w3.org/2000/svg">
<rect x="0.5" y="22.5" width="169" height="9" rx="4.5" fill="#B5B5B5" stroke="black"/>
<rect x="18.5" y="32.5" width="133" height="9" rx="4.5" fill="#999999" stroke="black"/>
<path d="M116.5 32.5C116.5 50.1805 102.39 64.5 85 64.5C67.6103 64.5 53.5 50.1805 53.5 32.5C53.5 14.8196 67.6103 0.5 85 0.5C102.39 0.5 116.5 14.8196 116.5 32.5Z" fill="#D9D9D9" stroke="black"/>
<path d="M79.9306 47.6393C81.4774 48.626 83.3287 48.7392 84.9104 48.1079C85.9298 47.7715 86.8616 47.1325 87.5603 46.2109L103.379 25.3443C105.214 22.9236 104.747 19.4681 102.334 17.6256C99.9205 15.7822 96.4748 16.2523 94.6388 18.6741L81.7152 35.7215L72.9373 30.1221C70.3771 28.4889 66.9831 29.2487 65.357 31.8167C63.7315 34.3835 64.4863 37.7874 67.0454 39.4199L79.9306 47.6393Z" fill="#B9DD7D" stroke="black"/>
</svg>
