<svg width="170" height="65" viewBox="0 0 170 65" fill="none" xmlns="http://www.w3.org/2000/svg">
<rect x="0.5" y="22.5" width="169" height="9" rx="4.5" fill="#B5B5B5" stroke="black"/>
<rect x="18.5" y="32.5" width="133" height="9" rx="4.5" fill="#999999" stroke="black"/>
<path d="M116.5 32.5C116.5 50.1805 102.39 64.5 85 64.5C67.6103 64.5 53.5 50.1805 53.5 32.5C53.5 14.8196 67.6103 0.5 85 0.5C102.39 0.5 116.5 14.8196 116.5 32.5Z" fill="#D9D9D9" stroke="black"/>
<path d="M85 49L84.7568 49.4369L85 49.5723L85.2432 49.4369L85 49ZM85 49C85.2432 49.4369 85.2434 49.4368 85.2436 49.4366L85.2445 49.4362L85.2476 49.4344L85.2591 49.4279L85.3035 49.403C85.3423 49.381 85.3995 49.3485 85.4738 49.3058C85.6224 49.2203 85.8395 49.0941 86.1153 48.9298C86.6668 48.6013 87.4534 48.1204 88.3968 47.5093C90.2827 46.2878 92.7997 44.5431 95.3193 42.4525C97.8364 40.3639 100.371 37.918 102.279 35.2918C104.184 32.6711 105.5 29.8241 105.5 26.9439C105.5 21.114 100.185 17.6471 95.0299 17.5046C92.4306 17.4328 89.8004 18.1935 87.8111 19.9608C86.5502 21.081 85.5668 22.5878 85.0098 24.5007C84.4619 22.5883 83.484 21.0815 82.2256 19.9612C80.2399 18.1933 77.6066 17.4328 75.0024 17.5046C69.8383 17.647 64.5 21.1126 64.5 26.9439C64.5 29.8241 65.8157 32.6711 67.7205 35.2918C69.6293 37.918 72.1636 40.3639 74.6807 42.4525C77.2003 44.5431 79.7173 46.2878 81.6032 47.5093C82.5466 48.1204 83.3332 48.6013 83.8847 48.9298C84.1605 49.0941 84.3776 49.2203 84.5262 49.3058C84.6005 49.3485 84.6577 49.381 84.6965 49.403L84.7409 49.4279L84.7524 49.4344L84.7555 49.4362L84.7564 49.4366C84.7566 49.4368 84.7568 49.4369 85 49Z" fill="#FF7070" stroke="black"/>
</svg>
